<svg width="50" height="79" viewBox="0 0 50 79" fill="none" xmlns="http://www.w3.org/2000/svg">
<path d="M39.0125 39.3603C39.0165 39.2992 39.0165 39.238 39.0125 39.1769C38.9806 38.7383 38.8171 38.3202 38.5441 37.9792L17.2961 11.8235C17.1209 11.6074 16.9055 11.4286 16.6624 11.2973C16.4192 11.166 16.1529 11.0847 15.8788 11.0582C15.6047 11.0318 15.3282 11.0605 15.0651 11.1429C14.802 11.2253 14.5574 11.3596 14.3453 11.5383L11.4826 13.9624C11.2703 14.1407 11.0945 14.3598 10.9655 14.6073C10.8364 14.8547 10.7566 15.1257 10.7306 15.4046C10.7045 15.6834 10.7328 15.9648 10.8138 16.2326C10.8947 16.5003 11.0268 16.7492 11.2024 16.965L29.3995 39.3725L11.2024 61.78C10.8488 62.2162 10.6797 62.7773 10.7322 63.3403C10.7848 63.9032 11.0546 64.4219 11.4826 64.7826L14.3493 67.1944C14.5614 67.3731 14.806 67.5075 15.0691 67.5899C15.3322 67.6722 15.6088 67.701 15.8828 67.6745C16.1569 67.648 16.4232 67.5668 16.6663 67.4355C16.9095 67.3042 17.1249 67.1254 17.3001 66.9093L38.5441 40.7495C38.8177 40.4105 38.9814 39.9934 39.0125 39.5558C39.0171 39.4907 39.0171 39.4254 39.0125 39.3603Z" fill="#ED1B5E"/>
</svg>
